# Blender 4.0.2
# www.blender.org
mtllib czesc-do-walka_x4.mtl
o Walec.008
v 23.519756 12.953125 -9.717255
v 10.095886 12.953125 -9.717255
v 23.519756 15.391754 -9.477070
v 10.095886 15.391754 -9.477070
v 23.519756 17.736668 -8.765748
v 10.095886 17.736668 -8.765748
v 23.519756 19.897753 -7.610624
v 10.095886 19.897753 -7.610624
v 23.519756 21.791960 -6.056089
v 10.095886 21.791960 -6.056089
v 23.519756 23.346495 -4.161883
v 10.095886 23.346495 -4.161883
v 23.519756 24.501617 -2.000798
v 10.095886 24.501617 -2.000798
v 23.519756 25.212940 0.344116
v 10.095886 25.212940 0.344116
v 23.519756 25.453125 2.782745
v 10.095886 25.453125 2.782745
v 23.519756 25.212940 5.221375
v 10.095886 25.212940 5.221375
v 23.519756 24.501617 7.566288
v 10.095886 24.501617 7.566288
v 23.519756 23.346495 9.727373
v 10.095886 23.346495 9.727373
v 23.519756 21.791960 11.621580
v 10.095886 21.791960 11.621580
v 23.519756 19.897753 13.176115
v 10.095886 19.897753 13.176115
v 23.519756 17.736668 14.331239
v 10.095886 17.736668 14.331239
v 23.519756 15.391754 15.042561
v 10.095886 15.391754 15.042561
v 23.519756 12.953125 15.282745
v 10.095886 12.953125 15.282745
v 23.519756 10.514496 15.042561
v 10.095886 10.514496 15.042561
v 23.519756 8.169582 14.331239
v 10.095886 8.169582 14.331239
v 23.519756 6.008497 13.176115
v 10.095886 6.008497 13.176115
v 23.519756 4.114290 11.621580
v 10.095886 4.114290 11.621580
v 23.519756 2.559755 9.727373
v 10.095886 2.559755 9.727373
v 23.519756 1.404632 7.566288
v 10.095886 1.404632 7.566288
v 23.519756 0.693310 5.221375
v 10.095886 0.693310 5.221375
v 23.519756 0.453125 2.782745
v 10.095886 0.453125 2.782745
v 23.519756 0.693310 0.344116
v 10.095886 0.693310 0.344116
v 23.519756 1.404632 -2.000798
v 10.095886 1.404632 -2.000798
v 23.519756 2.559755 -4.161883
v 10.095886 2.559755 -4.161883
v 23.519756 4.114290 -6.056089
v 10.095886 4.114290 -6.056089
v 23.519756 6.008497 -7.610624
v 10.095886 6.008497 -7.610624
v 23.519756 8.169582 -8.765748
v 10.095886 8.169582 -8.765748
v 23.519756 10.514496 -9.477070
v 10.095886 10.514496 -9.477070
v 12.693001 12.953124 -1.217255
v 12.693001 13.733485 -1.140395
v 12.693001 14.483858 -0.912772
v 12.693001 15.175406 -0.543133
v 12.693001 15.781551 -0.045682
v 12.693001 16.279003 0.560464
v 12.693001 16.648642 1.252012
v 12.693001 16.876265 2.002384
v 12.693001 16.953123 2.782745
v 12.693001 16.876265 3.563107
v 12.693001 16.648642 4.313479
v 12.693001 16.279003 5.005026
v 12.693001 15.781551 5.611173
v 12.693001 15.175406 6.108624
v 12.693001 14.483858 6.478263
v 12.693001 13.733485 6.705886
v 12.693001 12.953124 6.782745
v 12.693001 12.172763 6.705886
v 12.693001 11.422390 6.478263
v 12.693001 10.730843 6.108624
v 12.693001 10.124697 5.611173
v 12.693001 9.627245 5.005026
v 12.693001 9.257607 4.313479
v 12.693001 9.029984 3.563107
v 12.693001 8.953124 2.782745
v 12.693001 9.029984 2.002384
v 12.693001 9.257607 1.252012
v 12.693001 9.627245 0.560464
v 12.693001 10.124697 -0.045682
v 12.693001 10.730843 -0.543133
v 12.693001 11.422390 -0.912772
v 12.693001 12.172763 -1.140395
v -26.480246 9.627246 5.005026
v -26.480246 9.257607 4.313479
v -26.480246 10.124699 5.611173
v -26.480246 15.781550 -0.045680
v -26.480246 15.175406 -0.543133
v -26.480246 13.733486 -1.140395
v -26.480246 14.483858 -0.912772
v -26.480246 12.953125 -1.217255
v -26.480246 9.029984 3.563107
v -26.480246 8.953125 2.782745
v -26.480246 9.029984 2.002384
v -26.480246 9.257607 1.252012
v -26.480246 9.627246 0.560464
v -26.480246 10.124698 -0.045682
v -26.480246 10.730844 -0.543133
v -26.480246 12.172764 -1.140395
v -26.480246 11.422391 -0.912772
v -26.480246 12.953125 6.782745
v -26.480246 10.730844 6.108624
v -26.480246 12.172764 6.705886
v -26.480246 13.733486 6.705886
v -26.480246 16.279003 0.560464
v -26.480246 16.279003 5.005026
v -26.480246 16.648642 4.313479
v -26.480246 15.781551 5.611173
v -26.480246 14.483858 6.478263
v -26.480246 15.175406 6.108624
v -26.480246 16.953125 2.782745
v -26.480246 11.422391 6.478263
v -26.480246 16.648642 1.252012
v -26.480246 16.876265 2.002384
v -26.480246 16.876265 3.563107
vn -0.0000 0.0980 -0.9952
vn -0.0000 0.2903 -0.9569
vn -0.0000 0.4714 -0.8819
vn -0.0000 0.6344 -0.7730
vn -0.0000 0.7730 -0.6344
vn -0.0000 0.8819 -0.4714
vn -0.0000 0.9569 -0.2903
vn -0.0000 0.9952 -0.0980
vn -0.0000 0.9952 0.0980
vn -0.0000 0.9569 0.2903
vn -0.0000 0.8819 0.4714
vn -0.0000 0.7730 0.6344
vn -0.0000 0.6344 0.7730
vn -0.0000 0.4714 0.8819
vn -0.0000 0.2903 0.9569
vn -0.0000 0.0980 0.9952
vn -0.0000 -0.0980 0.9952
vn -0.0000 -0.2903 0.9569
vn -0.0000 -0.4714 0.8819
vn -0.0000 -0.6344 0.7730
vn -0.0000 -0.7730 0.6344
vn -0.0000 -0.8819 0.4714
vn -0.0000 -0.9569 0.2903
vn -0.0000 -0.9952 0.0980
vn -0.0000 -0.9952 -0.0980
vn -0.0000 -0.9569 -0.2903
vn -0.0000 -0.8819 -0.4714
vn -0.0000 -0.7730 -0.6344
vn -0.0000 -0.6344 -0.7730
vn -0.0000 -0.4714 -0.8819
vn -1.0000 -0.0000 -0.0000
vn -0.0000 -0.2903 -0.9569
vn -0.0000 -0.0980 -0.9952
vn 1.0000 -0.0000 -0.0000
vt 1.000000 0.500000
vt 1.000000 1.000000
vt 0.968750 1.000000
vt 0.968750 0.500000
vt 0.937500 1.000000
vt 0.937500 0.500000
vt 0.906250 1.000000
vt 0.906250 0.500000
vt 0.875000 1.000000
vt 0.875000 0.500000
vt 0.843750 1.000000
vt 0.843750 0.500000
vt 0.812500 1.000000
vt 0.812500 0.500000
vt 0.781250 1.000000
vt 0.781250 0.500000
vt 0.750000 1.000000
vt 0.750000 0.500000
vt 0.718750 1.000000
vt 0.718750 0.500000
vt 0.687500 1.000000
vt 0.687500 0.500000
vt 0.656250 1.000000
vt 0.656250 0.500000
vt 0.625000 1.000000
vt 0.625000 0.500000
vt 0.593750 1.000000
vt 0.593750 0.500000
vt 0.562500 1.000000
vt 0.562500 0.500000
vt 0.531250 1.000000
vt 0.531250 0.500000
vt 0.500000 1.000000
vt 0.500000 0.500000
vt 0.468750 1.000000
vt 0.468750 0.500000
vt 0.437500 1.000000
vt 0.437500 0.500000
vt 0.406250 1.000000
vt 0.406250 0.500000
vt 0.375000 1.000000
vt 0.375000 0.500000
vt 0.343750 1.000000
vt 0.343750 0.500000
vt 0.312500 1.000000
vt 0.312500 0.500000
vt 0.281250 1.000000
vt 0.281250 0.500000
vt 0.250000 1.000000
vt 0.250000 0.500000
vt 0.218750 1.000000
vt 0.218750 0.500000
vt 0.187500 1.000000
vt 0.187500 0.500000
vt 0.156250 1.000000
vt 0.156250 0.500000
vt 0.125000 1.000000
vt 0.125000 0.500000
vt 0.093750 1.000000
vt 0.093750 0.500000
vt 0.062500 1.000000
vt 0.062500 0.500000
vt 0.296822 0.485388
vt 0.250000 0.490000
vt 0.203178 0.485388
vt 0.158156 0.471731
vt 0.116663 0.449553
vt 0.080294 0.419706
vt 0.050447 0.383337
vt 0.028269 0.341844
vt 0.014612 0.296822
vt 0.010000 0.250000
vt 0.014612 0.203178
vt 0.028269 0.158156
vt 0.050447 0.116663
vt 0.080294 0.080294
vt 0.116663 0.050447
vt 0.158156 0.028269
vt 0.203178 0.014612
vt 0.250000 0.010000
vt 0.296822 0.014612
vt 0.341844 0.028269
vt 0.383337 0.050447
vt 0.419706 0.080294
vt 0.449553 0.116663
vt 0.471731 0.158156
vt 0.485388 0.203178
vt 0.490000 0.250000
vt 0.485388 0.296822
vt 0.471731 0.341844
vt 0.449553 0.383337
vt 0.419706 0.419706
vt 0.383337 0.449553
vt 0.341844 0.471731
vt 0.031250 1.000000
vt 0.031250 0.500000
vt 0.000000 1.000000
vt 0.000000 0.500000
vt 0.750000 0.490000
vt 0.796822 0.485388
vt 0.841844 0.471731
vt 0.883337 0.449553
vt 0.919706 0.419706
vt 0.949553 0.383337
vt 0.971731 0.341844
vt 0.985388 0.296822
vt 0.990000 0.250000
vt 0.985388 0.203178
vt 0.971731 0.158156
vt 0.949553 0.116663
vt 0.919706 0.080294
vt 0.883337 0.050447
vt 0.841844 0.028269
vt 0.796822 0.014612
vt 0.750000 0.010000
vt 0.703178 0.014612
vt 0.658156 0.028269
vt 0.616663 0.050447
vt 0.580294 0.080294
vt 0.550447 0.116663
vt 0.528269 0.158156
vt 0.514612 0.203178
vt 0.510000 0.250000
vt 0.514612 0.296822
vt 0.528269 0.341844
vt 0.550447 0.383337
vt 0.580294 0.419706
vt 0.616663 0.449553
vt 0.658156 0.471731
vt 0.703178 0.485388
vt 1.000000 0.986363
vt 0.968750 0.986363
vt 0.937500 0.986363
vt 0.906250 0.986363
vt 0.875000 0.986363
vt 0.843750 0.986363
vt 0.812500 0.986363
vt 0.781250 0.986363
vt 0.750000 0.986363
vt 0.718750 0.986363
vt 0.687500 0.986363
vt 0.656250 0.986363
vt 0.625000 0.986363
vt 0.593750 0.986363
vt 0.562500 0.986363
vt 0.531250 0.986363
vt 0.500000 0.986363
vt 0.468750 0.986363
vt 0.437500 0.986363
vt 0.406250 0.986363
vt 0.375000 0.986363
vt 0.343750 0.986363
vt 0.312500 0.986363
vt 0.281250 0.986363
vt 0.250000 0.986363
vt 0.218750 0.986363
vt 0.187500 0.986363
vt 0.156250 0.986363
vt 0.125000 0.986363
vt 0.093750 0.986363
vt 0.062500 0.986363
vt 0.031250 0.986363
vt 0.000000 0.986363
vt 0.533333 0.625000
vt 0.532693 0.618497
vt 0.530796 0.612244
vt 0.527716 0.606481
vt 0.523570 0.601430
vt 0.518519 0.597284
vt 0.512756 0.594204
vt 0.506503 0.592307
vt 0.500000 0.591667
vt 0.493497 0.592307
vt 0.487244 0.594204
vt 0.481481 0.597284
vt 0.476430 0.601430
vt 0.472284 0.606481
vt 0.469204 0.612244
vt 0.467307 0.618497
vt 0.466667 0.625000
vt 0.467307 0.631503
vt 0.469204 0.637756
vt 0.472284 0.643519
vt 0.476430 0.648570
vt 0.481481 0.652716
vt 0.487244 0.655796
vt 0.493497 0.657693
vt 0.500000 0.658333
vt 0.506503 0.657693
vt 0.512756 0.655796
vt 0.518519 0.652716
vt 0.523570 0.648570
vt 0.527716 0.643519
vt 0.530796 0.637756
vt 0.532693 0.631503
s 0
f 1/1/1 2/2/1 4/3/1 3/4/1
f 3/4/2 4/3/2 6/5/2 5/6/2
f 5/6/3 6/5/3 8/7/3 7/8/3
f 7/8/4 8/7/4 10/9/4 9/10/4
f 9/10/5 10/9/5 12/11/5 11/12/5
f 11/12/6 12/11/6 14/13/6 13/14/6
f 13/14/7 14/13/7 16/15/7 15/16/7
f 15/16/8 16/15/8 18/17/8 17/18/8
f 17/18/9 18/17/9 20/19/9 19/20/9
f 19/20/10 20/19/10 22/21/10 21/22/10
f 21/22/11 22/21/11 24/23/11 23/24/11
f 23/24/12 24/23/12 26/25/12 25/26/12
f 25/26/13 26/25/13 28/27/13 27/28/13
f 27/28/14 28/27/14 30/29/14 29/30/14
f 29/30/15 30/29/15 32/31/15 31/32/15
f 31/32/16 32/31/16 34/33/16 33/34/16
f 33/34/17 34/33/17 36/35/17 35/36/17
f 35/36/18 36/35/18 38/37/18 37/38/18
f 37/38/19 38/37/19 40/39/19 39/40/19
f 39/40/20 40/39/20 42/41/20 41/42/20
f 41/42/21 42/41/21 44/43/21 43/44/21
f 43/44/22 44/43/22 46/45/22 45/46/22
f 45/46/23 46/45/23 48/47/23 47/48/23
f 47/48/24 48/47/24 50/49/24 49/50/24
f 49/50/25 50/49/25 52/51/25 51/52/25
f 51/52/26 52/51/26 54/53/26 53/54/26
f 53/54/27 54/53/27 56/55/27 55/56/27
f 55/56/28 56/55/28 58/57/28 57/58/28
f 57/58/29 58/57/29 60/59/29 59/60/29
f 59/60/30 60/59/30 62/61/30 61/62/30
f 4/63/31 2/64/31 64/65/31 62/66/31 60/67/31 58/68/31 56/69/31 54/70/31 52/71/31 50/72/31 48/73/31 46/74/31 44/75/31 42/76/31 40/77/31 38/78/31 36/79/31 34/80/31 32/81/31 30/82/31 28/83/31 26/84/31 24/85/31 22/86/31 20/87/31 18/88/31 16/89/31 14/90/31 12/91/31 10/92/31 8/93/31 6/94/31
f 61/62/32 62/61/32 64/95/32 63/96/32
f 63/96/33 64/95/33 2/97/33 1/98/33
f 1/99/34 3/100/34 5/101/34 7/102/34 9/103/34 11/104/34 13/105/34 15/106/34 17/107/34 19/108/34 21/109/34 23/110/34 25/111/34 27/112/34 29/113/34 31/114/34 33/115/34 35/116/34 37/117/34 39/118/34 41/119/34 43/120/34 45/121/34 47/122/34 49/123/34 51/124/34 53/125/34 55/126/34 57/127/34 59/128/34 61/129/34 63/130/34
f 65/1/1 104/131/1 102/132/1 66/4/1
f 66/4/2 102/132/2 103/133/2 67/6/2
f 67/6/3 103/133/3 101/134/3 68/8/3
f 68/8/4 101/134/4 100/135/4 69/10/4
f 69/10/5 100/135/5 118/136/5 70/12/5
f 70/12/6 118/136/6 126/137/6 71/14/6
f 71/14/7 126/137/7 127/138/7 72/16/7
f 72/16/8 127/138/8 124/139/8 73/18/8
f 73/18/9 124/139/9 128/140/9 74/20/9
f 74/20/10 128/140/10 120/141/10 75/22/10
f 75/22/11 120/141/11 119/142/11 76/24/11
f 76/24/12 119/142/12 121/143/12 77/26/12
f 77/26/13 121/143/13 123/144/13 78/28/13
f 78/28/14 123/144/14 122/145/14 79/30/14
f 79/30/15 122/145/15 117/146/15 80/32/15
f 80/32/16 117/146/16 114/147/16 81/34/16
f 81/34/17 114/147/17 116/148/17 82/36/17
f 82/36/18 116/148/18 125/149/18 83/38/18
f 83/38/19 125/149/19 115/150/19 84/40/19
f 84/40/20 115/150/20 99/151/20 85/42/20
f 85/42/21 99/151/21 97/152/21 86/44/21
f 86/44/22 97/152/22 98/153/22 87/46/22
f 87/46/23 98/153/23 105/154/23 88/48/23
f 88/48/24 105/154/24 106/155/24 89/50/24
f 89/50/25 106/155/25 107/156/25 90/52/25
f 90/52/26 107/156/26 108/157/26 91/54/26
f 91/54/27 108/157/27 109/158/27 92/56/27
f 92/56/28 109/158/28 110/159/28 93/58/28
f 93/58/29 110/159/29 111/160/29 94/60/29
f 94/60/30 111/160/30 113/161/30 95/62/30
f 95/62/32 113/161/32 112/162/32 96/96/32
f 96/96/33 112/162/33 104/163/33 65/98/33
f 65/99/34 66/100/34 67/101/34 68/102/34 69/103/34 70/104/34 71/105/34 72/106/34 73/107/34 74/108/34 75/109/34 76/110/34 77/111/34 78/112/34 79/113/34 80/114/34 81/115/34 82/116/34 83/117/34 84/118/34 85/119/34 86/120/34 87/121/34 88/122/34 89/123/34 90/124/34 91/125/34 92/126/34 93/127/34 94/128/34 95/129/34 96/130/34
f 124/164/31 127/165/31 126/166/31 118/167/31 100/168/31 101/169/31 103/170/31 102/171/31 104/172/31 112/173/31 113/174/31 111/175/31 110/176/31 109/177/31 108/178/31 107/179/31 106/180/31 105/181/31 98/182/31 97/183/31 99/184/31 115/185/31 125/186/31 116/187/31 114/188/31 117/189/31 122/190/31 123/191/31 121/192/31 119/193/31 120/194/31 128/195/31
