# Blender 4.0.2
# www.blender.org
mtllib podpora_x2.mtl
o Kostka.005
v -37.979332 29.415710 43.663658
v -37.979332 44.415710 43.663658
v -37.979332 29.415710 -39.407585
v -37.979332 44.415710 -39.407585
v -22.979330 29.415710 43.663658
v -22.979330 44.415710 43.663658
v -22.979330 29.415710 -39.407585
v -22.979330 44.415710 -39.407585
v -56.500000 -13.084270 87.500000
v -38.500000 46.595486 73.385361
v -56.500000 86.915718 87.500000
v -38.500000 31.188257 66.200851
v -44.750000 10.165724 75.750000
v -56.500000 -13.084270 37.500000
v -56.500000 86.915718 37.500000
v -21.500000 46.595486 73.385361
v -44.750000 10.165724 49.250004
v -21.500000 31.188257 66.200851
v -6.500002 -13.084270 87.500000
v -6.500002 86.915718 87.500000
v -18.250002 10.165724 75.750000
v -6.500002 -13.084270 37.500000
v -6.500002 86.915718 37.500000
v -18.250002 10.165724 49.250004
v -18.250002 -13.084270 75.750000
v -44.750000 -13.084270 49.250004
v -18.250002 -13.084270 49.250004
v -44.750000 -13.084270 75.750000
v -21.500000 21.256300 87.500000
v -21.500000 40.013721 87.500000
v -21.500000 38.223064 87.500000
v -38.500000 21.256300 87.500000
v -38.500000 38.223064 87.500000
v -38.500000 40.013721 87.500000
v -56.500000 -13.084270 -36.500004
v -38.500000 31.188257 -65.484550
v -56.500000 86.915718 -36.500004
v -38.500000 46.595490 -72.669067
v -44.750000 10.165724 -49.250004
v -56.500000 -13.084270 -86.500000
v -56.500000 86.915718 -86.500000
v -21.500000 31.188257 -65.484550
v -44.750000 10.165724 -75.750000
v -21.500000 46.595490 -72.669067
v -6.500002 -13.084270 -36.500004
v -6.500002 86.915718 -36.500004
v -18.250002 10.165724 -49.250004
v -6.500002 -13.084270 -86.500000
v -6.500002 86.915718 -86.500000
v -18.250002 10.165724 -75.750000
v -44.750000 -13.084270 -75.750000
v -18.250002 -13.084270 -49.250004
v -18.250002 -13.084270 -75.750000
v -44.750000 -13.084270 -49.250004
v -38.500000 23.818565 -86.500000
v -38.500000 40.146015 -86.500000
v -38.500000 21.388590 -86.500000
v -21.500000 21.388590 -86.500000
v -21.500000 40.146015 -86.500000
v -21.500000 23.818565 -86.500000
vn -1.0000 -0.0000 -0.0000
vn -0.0000 -0.0000 -1.0000
vn 1.0000 -0.0000 -0.0000
vn -0.0000 -0.0000 1.0000
vn -0.0000 -1.0000 -0.0000
vn -0.0000 1.0000 -0.0000
vn -0.0000 -0.4226 0.9063
vn -0.0000 -0.9063 -0.4226
vn -0.0000 0.9063 0.4226
vn -0.0000 -0.4226 -0.9063
vn -0.0000 0.9063 -0.4226
vn -0.0000 -0.9063 0.4226
vt 0.375000 0.000000
vt 0.625000 0.000000
vt 0.625000 0.250000
vt 0.375000 0.250000
vt 0.625000 0.500000
vt 0.375000 0.500000
vt 0.625000 0.750000
vt 0.375000 0.750000
vt 0.625000 1.000000
vt 0.375000 1.000000
vt 0.125000 0.500000
vt 0.125000 0.750000
vt 0.875000 0.500000
vt 0.875000 0.750000
vt 0.460851 0.825000
vt 0.460851 0.910000
vt 0.503268 0.910000
vt 0.507745 0.910000
vt 0.507745 0.825000
vt 0.503268 0.825000
vt 0.183750 0.558750
vt 0.183750 0.691250
vt 0.316250 0.691250
vt 0.316250 0.558750
vt 0.405660 0.250000
vt 0.405660 0.000000
vt 0.405660 0.500000
vt 0.405660 0.750000
vt 0.405660 1.000000
vt 0.625000 0.056493
vt 0.398866 0.039256
vt 0.375000 0.712563
vt 0.398866 0.710744
vt 0.125000 0.712563
vt 0.625000 0.693507
vt 0.875000 0.693507
vt 0.375000 0.037437
vt 0.461182 0.425000
vt 0.467257 0.425000
vt 0.508076 0.425000
vt 0.508076 0.340000
vt 0.467257 0.340000
vt 0.461182 0.340000
vt 0.183750 0.553750
vt 0.316250 0.553750
vt 0.183750 0.686250
vt 0.316250 0.686250
vt 0.407387 0.053272
vt 0.625000 0.036684
vt 0.407387 0.696728
vt 0.375000 0.694260
vt 0.125000 0.694260
vt 0.875000 0.713315
vt 0.625000 0.713315
vt 0.375000 0.055740
s 0
f 1/1/1 2/2/1 4/3/1 3/4/1
f 3/4/2 4/3/2 8/5/2 7/6/2
f 7/6/3 8/5/3 6/7/3 5/8/3
f 5/8/4 6/7/4 2/9/4 1/10/4
f 3/11/5 7/6/5 5/8/5 1/12/5
f 8/5/6 4/13/6 2/14/6 6/7/6
f 9/1/1 11/2/1 15/3/1 14/4/1
f 14/4/2 15/3/2 23/5/2 22/6/2
f 22/6/3 23/5/3 20/7/3 19/8/3
f 29/15/4 19/8/4 20/7/4 11/9/4 9/10/4 32/16/4 33/17/4 34/18/4 30/19/4 31/20/4
f 32/16/4 9/10/4 19/8/4 29/15/4
f 26/21/5 28/22/5 9/12/5 14/11/5 22/6/5 19/8/5 25/23/5 27/24/5
f 19/8/5 9/12/5 28/22/5 25/23/5
f 23/5/6 15/13/6 11/14/6 20/7/6
f 26/25/3 17/3/3 13/2/3 28/26/3
f 27/27/4 24/5/4 17/3/4 26/25/4
f 25/28/1 21/7/1 24/5/1 27/27/1
f 28/29/2 13/9/2 21/7/2 25/28/2
f 24/5/5 21/7/5 13/14/5 17/13/5
f 32/30/3 12/2/3 10/1/3 33/31/3
f 30/32/1 16/8/1 31/33/1
f 16/8/7 10/10/7 12/9/7 18/7/7
f 10/12/8 16/8/8 30/32/8 34/34/8
f 29/35/9 18/7/9 12/14/9 32/36/9
f 33/31/3 10/1/3 34/37/3
f 16/8/1 18/7/1 29/35/1 31/33/1
f 35/1/1 37/2/1 41/3/1 40/4/1
f 40/4/2 41/3/2 49/5/2 48/6/2 58/38/2 60/39/2 59/40/2 56/41/2 55/42/2 57/43/2
f 58/38/2 48/6/2 40/4/2 57/43/2
f 48/6/3 49/5/3 46/7/3 45/8/3
f 45/8/4 46/7/4 37/9/4 35/10/4
f 51/44/5 40/11/5 48/6/5 53/45/5
f 53/45/5 48/6/5 45/8/5 35/12/5 40/11/5 51/44/5 54/46/5 52/47/5
f 49/5/6 41/13/6 37/14/6 46/7/6
f 51/25/3 43/3/3 39/2/3 54/26/3
f 53/27/4 50/5/4 43/3/4 51/25/4
f 52/28/1 47/7/1 50/5/1 53/27/1
f 54/29/2 39/9/2 47/7/2 52/28/2
f 50/5/5 47/7/5 39/14/5 43/13/5
f 38/2/3 36/1/3 55/48/3 56/49/3
f 42/8/1 60/50/1 58/51/1
f 42/8/10 36/10/10 38/9/10 44/7/10
f 57/52/11 36/12/11 42/8/11 58/51/11
f 44/7/12 38/14/12 56/53/12 59/54/12
f 36/1/3 57/55/3 55/48/3
f 44/7/1 59/54/1 60/50/1 42/8/1
