# Blender 4.0.2
# www.blender.org
mtllib ramie_x4.mtl
o Kostka.006
v -37.500000 26.151566 -29.894203
v -37.500000 12.556950 -36.233475
v -37.500000 -17.102741 62.864944
v -37.500000 -30.697357 56.525673
v -22.500000 26.151566 -29.894203
v -22.500000 12.556950 -36.233475
v -22.500000 -17.102741 62.864944
v -22.500000 -30.697357 56.525673
v -22.500000 -23.327616 47.537315
v -37.500000 -23.327618 47.537315
v -22.500000 -23.274185 48.516033
v -37.500000 -23.274185 48.516033
v -22.500000 -18.550474 52.750660
v -37.500000 -18.550472 52.750652
v -22.500000 -19.520805 52.612125
v -37.500000 -19.520805 52.612125
v -22.500000 -23.189087 46.566986
v -37.500000 -23.189089 46.566990
v -22.500000 -16.622276 52.453880
v -37.500000 -16.622276 52.453876
v -22.500000 -14.057819 45.161552
v -37.500000 -14.057819 45.161552
v -22.500000 -14.645990 44.377468
v -37.500000 -14.645990 44.377468
v -22.500000 -15.738512 52.029976
v -37.500000 -15.738512 52.029976
v -22.500000 -15.375829 43.723198
v -37.500000 -15.375830 43.723198
v -22.500000 -18.114281 42.760178
v -37.500000 -18.114281 42.760178
v -22.500000 -22.863914 45.642326
v -37.500000 -22.863916 45.642326
v -22.500000 -22.018764 51.133369
v -37.500000 -22.018763 51.133362
v -22.500000 -19.092995 42.813610
v -37.500000 -19.092995 42.813610
v -22.500000 -13.475667 48.943844
v -37.500000 -13.475668 48.943844
v -22.500000 -13.633915 46.045319
v -37.500000 -13.633915 46.045319
v -22.500000 -13.337137 47.973515
v -37.500000 -13.337137 47.973515
v -22.500000 -13.800838 49.868507
v -37.500000 -13.800839 49.868507
v -22.500000 -23.030838 49.465515
v -37.500000 -23.030840 49.465515
v -22.500000 -22.606934 50.349277
v -37.500000 -22.606936 50.349277
v -22.500000 -16.219286 43.223881
v -37.500000 -16.219288 43.223881
v -22.500000 -20.445467 52.286957
v -37.500000 -20.445469 52.286957
v -22.500000 -14.300154 50.711964
v -37.500000 -14.300156 50.711967
v -22.500000 -17.571758 52.697220
v -37.500000 -17.571758 52.697220
v -22.500000 -14.954424 51.441799
v -37.500000 -14.954425 51.441799
v -22.500000 -21.710327 44.069031
v -37.500000 -21.710329 44.069031
v -22.500000 -20.926243 43.480858
v -37.500000 -20.926243 43.480858
v -22.500000 -22.364599 44.798866
v -37.500000 -22.364599 44.798866
v -22.500000 -20.042477 43.056953
v -37.500000 -20.042479 43.056953
v -22.500000 -17.143948 42.898708
v -37.500000 -17.143948 42.898708
v -22.500000 -13.390570 46.994801
v -37.500000 -13.390570 46.994801
v -22.500000 -21.288923 51.787640
v -37.500000 -21.288923 51.787640
vn -1.0000 -0.0000 -0.0000
vn -0.0000 -0.4226 0.9063
vn 1.0000 -0.0000 -0.0000
vn -0.0000 0.4226 -0.9063
vn -0.0000 0.9063 0.4226
vn -0.0000 -0.9063 -0.4226
vn -0.0000 -0.9434 -0.3317
vn -0.0000 -0.9687 0.2483
vn -0.0000 -0.9985 0.0545
vn -0.0000 0.9434 0.3317
vn -0.0000 -0.7446 -0.6675
vn -0.0000 -0.8605 -0.5094
vn -0.0000 -0.4325 -0.9016
vn -0.0000 0.5094 -0.8605
vn -0.0000 -0.3318 0.9434
vn -0.0000 0.9985 -0.0545
vn -0.0000 -0.5094 0.8605
vn -0.0000 0.6675 -0.7446
vn -0.0000 -0.2483 -0.9687
vn -0.0000 0.0545 0.9985
vn -0.0000 -0.0545 -0.9985
vn -0.0000 -0.9016 0.4325
vn -0.0000 0.9016 -0.4325
vn -0.0000 0.9900 0.1413
vn -0.0000 -0.7999 0.6001
vn -0.0000 0.2483 0.9687
vn -0.0000 0.6001 0.7999
vn -0.0000 0.3317 -0.9434
vn -0.0000 -0.6001 -0.7999
vn -0.0000 0.8605 0.5094
vn -0.0000 -0.9900 -0.1413
vn -0.0000 -0.1413 0.9900
vn -0.0000 0.7999 -0.6001
vn -0.0000 0.1413 -0.9900
vn -0.0000 -0.6675 0.7446
vn -0.0000 0.7446 0.6675
vn -0.0000 0.9687 -0.2483
vn -0.0000 0.4325 0.9016
vt 0.375000 0.000000
vt 0.625000 0.000000
vt 0.625000 0.250000
vt 0.375000 0.250000
vt 0.500000 0.230033
vt 0.516257 0.229799
vt 0.531890 0.229104
vt 0.546297 0.227975
vt 0.558925 0.226456
vt 0.569289 0.224605
vt 0.576990 0.222494
vt 0.581732 0.220203
vt 0.583333 0.217820
vt 0.581732 0.215437
vt 0.576990 0.213146
vt 0.569289 0.211035
vt 0.558925 0.209184
vt 0.546297 0.207665
vt 0.531890 0.206537
vt 0.516257 0.205842
vt 0.500000 0.205607
vt 0.625000 0.500000
vt 0.375000 0.500000
vt 0.500000 0.519967
vt 0.483742 0.520201
vt 0.468110 0.520896
vt 0.453702 0.522025
vt 0.441074 0.523544
vt 0.430711 0.525395
vt 0.423010 0.527506
vt 0.418268 0.529797
vt 0.416667 0.532180
vt 0.418268 0.534563
vt 0.423010 0.536854
vt 0.430711 0.538965
vt 0.441074 0.540816
vt 0.453702 0.542335
vt 0.468110 0.543463
vt 0.483742 0.544158
vt 0.500000 0.544393
vt 0.375000 0.750000
vt 0.625000 0.750000
vt 0.625000 1.000000
vt 0.375000 1.000000
vt 0.125000 0.500000
vt 0.125000 0.750000
vt 0.875000 0.500000
vt 0.875000 0.750000
vt 0.718750 0.833750
vt 0.718750 0.841250
vt 0.750000 0.841250
vt 0.750000 0.833750
vt 0.483742 0.205842
vt 0.468110 0.206537
vt 0.453702 0.207665
vt 0.441074 0.209184
vt 0.430711 0.211035
vt 0.423010 0.213146
vt 0.418268 0.215437
vt 0.416667 0.217820
vt 0.418268 0.220203
vt 0.423010 0.222494
vt 0.430711 0.224605
vt 0.441074 0.226456
vt 0.453702 0.227975
vt 0.468110 0.229104
vt 0.483742 0.229799
vt 0.625000 0.833750
vt 0.625000 0.841250
vt 0.656250 0.841250
vt 0.656250 0.833750
vt 0.687500 0.841250
vt 0.687500 0.833750
vt 0.218750 0.833750
vt 0.218750 0.841250
vt 0.250000 0.841250
vt 0.250000 0.833750
vt 0.781250 0.833750
vt 0.781250 0.841250
vt 0.812500 0.841250
vt 0.812500 0.833750
vt 0.843750 0.833750
vt 0.843750 0.841250
vt 0.875000 0.841250
vt 0.875000 0.833750
vt 0.000000 0.833750
vt 0.000000 0.841250
vt 0.031250 0.841250
vt 0.031250 0.833750
vt 0.468750 0.833750
vt 0.468750 0.841250
vt 0.500000 0.841250
vt 0.500000 0.833750
vt 0.156250 0.833750
vt 0.156250 0.841250
vt 0.187500 0.841250
vt 0.187500 0.833750
vt 0.531250 0.841250
vt 0.531250 0.833750
vt 0.062500 0.841250
vt 0.062500 0.833750
vt 0.906250 0.841250
vt 0.906250 0.833750
vt 0.406250 0.833750
vt 0.406250 0.841250
vt 0.437500 0.841250
vt 0.437500 0.833750
vt 0.937500 0.841250
vt 0.937500 0.833750
vt 0.593750 0.833750
vt 0.593750 0.841250
vt 0.093750 0.833750
vt 0.093750 0.841250
vt 0.125000 0.841250
vt 0.125000 0.833750
vt 0.562500 0.833750
vt 0.562500 0.841250
vt 0.375000 0.833750
vt 0.375000 0.841250
vt 0.312500 0.833750
vt 0.312500 0.841250
vt 0.343750 0.841250
vt 0.343750 0.833750
vt 0.968750 0.833750
vt 0.968750 0.841250
vt 1.000000 0.841250
vt 1.000000 0.833750
vt 0.281250 0.841250
vt 0.281250 0.833750
vt 0.516257 0.544158
vt 0.531890 0.543463
vt 0.546297 0.542335
vt 0.558925 0.540816
vt 0.569289 0.538965
vt 0.576990 0.536854
vt 0.581732 0.534563
vt 0.583333 0.532180
vt 0.581732 0.529797
vt 0.576990 0.527506
vt 0.569289 0.525395
vt 0.558925 0.523544
vt 0.546297 0.522025
vt 0.531890 0.520896
vt 0.516257 0.520201
s 0
f 1/1/1 2/2/1 4/3/1 3/4/1 52/5/1 72/6/1 34/7/1 48/8/1 46/9/1 12/10/1 10/11/1 18/12/1 32/13/1 64/14/1 60/15/1 62/16/1 66/17/1 36/18/1 30/19/1 68/20/1 50/21/1
f 3/4/2 4/3/2 8/22/2 7/23/2
f 7/23/3 51/24/3 15/25/3 13/26/3 55/27/3 19/28/3 25/29/3 57/30/3 53/31/3 43/32/3 37/33/3 41/34/3 69/35/3 39/36/3 21/37/3 23/38/3 27/39/3 49/40/3 5/41/3
f 5/41/4 6/42/4 2/43/4 1/44/4
f 3/45/5 7/23/5 5/41/5 1/46/5
f 8/22/6 4/47/6 2/48/6 6/42/6
f 38/49/7 37/50/7 43/51/7 44/52/7
f 28/53/1 24/54/1 22/55/1 40/56/1 70/57/1 42/58/1 38/59/1 44/60/1 54/61/1 58/62/1 26/63/1 20/64/1 56/65/1 14/66/1 16/67/1 52/5/1 3/4/1 1/1/1 50/21/1
f 40/68/8 39/69/8 69/70/8 70/71/8
f 70/71/9 69/70/9 41/72/9 42/73/9
f 18/74/10 17/75/10 31/76/10 32/77/10
f 54/78/11 53/79/11 57/80/11 58/81/11
f 44/52/12 43/51/12 53/79/12 54/78/12
f 26/82/13 25/83/13 19/84/13 20/85/13
f 52/86/14 51/87/14 71/88/14 72/89/14
f 68/90/15 67/91/15 49/92/15 50/93/15
f 12/94/16 11/95/16 9/96/16 10/97/16
f 50/93/17 49/92/17 27/98/17 28/99/17
f 72/89/18 71/88/18 33/100/18 34/101/18
f 20/85/19 19/84/19 55/102/19 56/103/19
f 36/104/20 35/105/20 29/106/20 30/107/20
f 56/103/21 55/102/21 13/108/21 14/109/21
f 22/110/22 21/111/22 39/69/22 40/68/22
f 48/112/23 47/113/23 45/114/23 46/115/23
f 10/97/24 9/96/24 17/75/24 18/74/24
f 24/116/25 23/117/25 21/111/25 22/110/25
f 66/118/26 65/119/26 35/105/26 36/104/26
f 60/120/27 59/121/27 61/122/27 62/123/27
f 16/124/28 15/125/28 51/126/28 52/127/28
f 58/81/29 57/80/29 25/83/29 26/82/29
f 32/77/30 31/76/30 63/128/30 64/129/30
f 42/73/31 41/72/31 37/50/31 38/49/31
f 30/107/32 29/106/32 67/91/32 68/90/32
f 34/101/33 33/100/33 47/113/33 48/112/33
f 14/109/34 13/108/34 15/125/34 16/124/34
f 28/99/35 27/98/35 23/117/35 24/116/35
f 64/129/36 63/128/36 59/121/36 60/120/36
f 46/115/37 45/114/37 11/95/37 12/94/37
f 62/123/38 61/122/38 65/119/38 66/118/38
f 5/41/3 49/40/3 67/130/3 29/131/3 35/132/3 65/133/3 61/134/3 59/135/3 63/136/3 31/137/3 17/138/3 9/139/3 11/140/3 45/141/3 47/142/3 33/143/3 71/144/3 51/24/3 7/23/3 8/22/3 6/42/3
